<svg width="148" height="38" viewBox="0 0 148 38" fill="none" xmlns="http://www.w3.org/2000/svg">
<g filter="url(#filter0_dd_8_10051)">
<g clip-path="url(#clip0_8_10051)">
<rect x="3" y="2" width="32" height="32" rx="8" fill="white"/>
<rect x="3" y="2" width="32" height="32" rx="8" fill="url(#paint0_linear_8_10051)"/>
<path fill-rule="evenodd" clip-rule="evenodd" d="M19 4.03884C11.2895 4.03884 5.03885 10.2895 5.03885 18C5.03885 25.7105 11.2895 31.9612 19 31.9612C26.7106 31.9612 32.9612 25.7105 32.9612 18C32.9612 10.2895 26.7106 4.03884 19 4.03884ZM4.96118 18C4.96118 10.2466 11.2466 3.96117 19 3.96117C26.7535 3.96117 33.0389 10.2466 33.0389 18C33.0389 25.7534 26.7535 32.0388 19 32.0388C11.2466 32.0388 4.96118 25.7534 4.96118 18Z" fill="#D0D5DD"/>
<path fill-rule="evenodd" clip-rule="evenodd" d="M19 14.0779C16.8338 14.0779 15.0777 15.834 15.0777 18.0002C15.0777 20.1665 16.8338 21.9226 19 21.9226C21.1662 21.9226 22.9223 20.1665 22.9223 18.0002C22.9223 15.834 21.1662 14.0779 19 14.0779ZM15 18.0002C15 15.7911 16.7909 14.0002 19 14.0002C21.2091 14.0002 23 15.7911 23 18.0002C23 20.2094 21.2091 22.0002 19 22.0002C16.7909 22.0002 15 20.2094 15 18.0002Z" fill="#D0D5DD"/>
<path fill-rule="evenodd" clip-rule="evenodd" d="M19 15.3201C17.52 15.3201 16.3203 16.5198 16.3203 17.9997C16.3203 19.4796 17.52 20.6793 19 20.6793C20.4799 20.6793 21.6796 19.4796 21.6796 17.9997C21.6796 16.5198 20.4799 15.3201 19 15.3201ZM16.2427 17.9997C16.2427 16.4769 17.4772 15.2424 19 15.2424C20.5228 15.2424 21.7572 16.4769 21.7572 17.9997C21.7572 19.5225 20.5228 20.757 19 20.757C17.4772 20.757 16.2427 19.5225 16.2427 17.9997Z" fill="#D0D5DD"/>
<path d="M18.9612 2H19.0389V34H18.9612V2Z" fill="#D0D5DD"/>
<path d="M35 17.9609L35 18.0386L3 18.0386L3 17.9609L35 17.9609Z" fill="#D0D5DD"/>
<path d="M29.6019 2H29.6796V34H29.6019V2Z" fill="#D0D5DD"/>
<path d="M13.6407 2H13.7184V34H13.6407V2Z" fill="#D0D5DD"/>
<path d="M24.2815 2H24.3592V34H24.2815V2Z" fill="#D0D5DD"/>
<path d="M8.32031 2H8.39798V34H8.32031V2Z" fill="#D0D5DD"/>
<path d="M35 28.6016L35 28.6792L3 28.6792L3 28.6016L35 28.6016Z" fill="#D0D5DD"/>
<path d="M35 12.6406L35 12.7183L3 12.7183L3 12.6406L35 12.6406Z" fill="#D0D5DD"/>
<path d="M35 23.2812L35 23.3589L3 23.3589L3 23.2812L35 23.2812Z" fill="#D0D5DD"/>
<path d="M35 7.32031L35 7.39798L3 7.39798L3 7.32031L35 7.32031Z" fill="#D0D5DD"/>
<g filter="url(#filter1_dd_8_10051)">
<circle cx="19" cy="18" r="8" fill="url(#paint1_linear_8_10051)"/>
</g>
<g filter="url(#filter2_b_8_10051)">
<path d="M3 18H35V21.2C35 25.6804 35 27.9206 34.1281 29.6319C33.3611 31.1372 32.1372 32.3611 30.6319 33.1281C28.9206 34 26.6804 34 22.2 34H15.8C11.3196 34 9.07937 34 7.36808 33.1281C5.86278 32.3611 4.63893 31.1372 3.87195 29.6319C3 27.9206 3 25.6804 3 21.2V18Z" fill="white" fill-opacity="0.2"/>
</g>
</g>
<rect x="3.15" y="2.15" width="31.7" height="31.7" rx="7.85" stroke="#D0D5DD" stroke-width="0.3"/>
</g>
<path d="M44.7216 9.04545H48.5909L53.7727 21.6932H53.9773L59.1591 9.04545H63.0284V26.5H59.9943V14.5085H59.8324L55.0085 26.4489H52.7415L47.9176 14.483H47.7557V26.5H44.7216V9.04545ZM71.3255 26.7557C70.047 26.7557 68.9391 26.4744 68.0016 25.9119C67.0641 25.3494 66.3368 24.5625 65.8198 23.5511C65.3084 22.5398 65.0527 21.358 65.0527 20.0057C65.0527 18.6534 65.3084 17.4687 65.8198 16.4517C66.3368 15.4347 67.0641 14.6449 68.0016 14.0824C68.9391 13.5199 70.047 13.2386 71.3255 13.2386C72.6039 13.2386 73.7118 13.5199 74.6493 14.0824C75.5868 14.6449 76.3113 15.4347 76.8226 16.4517C77.3397 17.4687 77.5982 18.6534 77.5982 20.0057C77.5982 21.358 77.3397 22.5398 76.8226 23.5511C76.3113 24.5625 75.5868 25.3494 74.6493 25.9119C73.7118 26.4744 72.6039 26.7557 71.3255 26.7557ZM71.3425 24.2841C72.0357 24.2841 72.6152 24.0937 73.0811 23.7131C73.547 23.3267 73.8936 22.8097 74.1209 22.1619C74.3539 21.5142 74.4703 20.7926 74.4703 19.9972C74.4703 19.196 74.3539 18.4716 74.1209 17.8239C73.8936 17.1705 73.547 16.6506 73.0811 16.2642C72.6152 15.8778 72.0357 15.6847 71.3425 15.6847C70.6323 15.6847 70.0414 15.8778 69.5698 16.2642C69.1039 16.6506 68.7544 17.1705 68.5215 17.8239C68.2942 18.4716 68.1806 19.196 68.1806 19.9972C68.1806 20.7926 68.2942 21.5142 68.5215 22.1619C68.7544 22.8097 69.1039 23.3267 69.5698 23.7131C70.0414 24.0937 70.6323 24.2841 71.3425 24.2841ZM90.7447 13.4091L86.0827 26.5H82.6736L78.0117 13.4091H81.3015L84.31 23.1335H84.4464L87.4634 13.4091H90.7447ZM92.1596 26.5V13.4091H95.2448V26.5H92.1596ZM93.7107 11.5511C93.2221 11.5511 92.8016 11.3892 92.4494 11.0653C92.0971 10.7358 91.921 10.3409 91.921 9.88068C91.921 9.41477 92.0971 9.01989 92.4494 8.69602C92.8016 8.36648 93.2221 8.2017 93.7107 8.2017C94.2051 8.2017 94.6255 8.36648 94.9721 8.69602C95.3244 9.01989 95.5005 9.41477 95.5005 9.88068C95.5005 10.3409 95.3244 10.7358 94.9721 11.0653C94.6255 11.3892 94.2051 11.5511 93.7107 11.5511ZM103.493 26.7557C102.18 26.7557 101.047 26.483 100.092 25.9375C99.1434 25.3864 98.4133 24.608 97.902 23.6023C97.3906 22.5909 97.1349 21.4006 97.1349 20.0312C97.1349 18.6847 97.3906 17.5028 97.902 16.4858C98.419 15.4631 99.1406 14.6676 100.067 14.0994C100.993 13.5256 102.081 13.2386 103.331 13.2386C104.138 13.2386 104.899 13.3693 105.615 13.6307C106.337 13.8864 106.973 14.2841 107.524 14.8239C108.081 15.3636 108.518 16.0511 108.837 16.8864C109.155 17.7159 109.314 18.7045 109.314 19.8523V20.7983H98.5838V18.7188H106.357C106.351 18.1278 106.223 17.6023 105.973 17.142C105.723 16.6761 105.374 16.3097 104.925 16.0426C104.482 15.7756 103.964 15.642 103.374 15.642C102.743 15.642 102.189 15.7955 101.712 16.1023C101.234 16.4034 100.862 16.8011 100.595 17.2955C100.334 17.7841 100.2 18.321 100.195 18.9062V20.7216C100.195 21.483 100.334 22.1364 100.612 22.6818C100.891 23.2216 101.28 23.6364 101.78 23.9261C102.28 24.2102 102.865 24.3523 103.535 24.3523C103.984 24.3523 104.391 24.2898 104.754 24.1648C105.118 24.0341 105.433 23.8438 105.7 23.5938C105.967 23.3438 106.169 23.0341 106.305 22.6648L109.186 22.9886C109.004 23.75 108.658 24.4148 108.146 24.983C107.641 25.5455 106.993 25.983 106.203 26.2955C105.413 26.6023 104.51 26.7557 103.493 26.7557ZM122.488 26.5H116.573V9.04545H122.608C124.341 9.04545 125.829 9.39489 127.073 10.0938C128.323 10.7869 129.284 11.7841 129.954 13.0852C130.625 14.3864 130.96 15.9432 130.96 17.7557C130.96 19.5739 130.622 21.1364 129.946 22.4432C129.275 23.75 128.306 24.7528 127.039 25.4517C125.778 26.1506 124.261 26.5 122.488 26.5ZM119.735 23.7642H122.335C123.551 23.7642 124.565 23.5426 125.377 23.0994C126.19 22.6506 126.801 21.983 127.21 21.0966C127.619 20.2045 127.823 19.0909 127.823 17.7557C127.823 16.4205 127.619 15.3125 127.21 14.4318C126.801 13.5455 126.196 12.8835 125.394 12.446C124.599 12.0028 123.61 11.7812 122.429 11.7812H119.735V23.7642ZM133.244 26.5V9.04545H139.926C141.187 9.04545 142.236 9.24432 143.071 9.64204C143.912 10.0341 144.54 10.571 144.954 11.2528C145.375 11.9347 145.585 12.7074 145.585 13.571C145.585 14.2812 145.449 14.8892 145.176 15.3949C144.903 15.8949 144.537 16.3011 144.076 16.6136C143.616 16.9261 143.102 17.1506 142.534 17.2869V17.4574C143.153 17.4915 143.747 17.6818 144.315 18.0284C144.889 18.3693 145.358 18.8523 145.721 19.4773C146.085 20.1023 146.267 20.858 146.267 21.7443C146.267 22.6477 146.048 23.4602 145.611 24.1818C145.173 24.8977 144.514 25.4631 143.633 25.8778C142.753 26.2926 141.645 26.5 140.309 26.5H133.244ZM136.406 23.858H139.807C140.954 23.858 141.781 23.6392 142.287 23.2017C142.798 22.7585 143.054 22.1903 143.054 21.4972C143.054 20.9801 142.926 20.5142 142.67 20.0994C142.415 19.679 142.051 19.3494 141.579 19.1108C141.108 18.8665 140.545 18.7443 139.892 18.7443H136.406V23.858ZM136.406 16.4688H139.534C140.079 16.4688 140.571 16.3693 141.008 16.1705C141.446 15.9659 141.79 15.679 142.04 15.3097C142.295 14.9347 142.423 14.4915 142.423 13.9801C142.423 13.304 142.184 12.7472 141.707 12.3097C141.236 11.8722 140.534 11.6534 139.602 11.6534H136.406V16.4688Z" fill="black"/>
<defs>
<filter id="filter0_dd_8_10051" x="0" y="0" width="38" height="38" filterUnits="userSpaceOnUse" color-interpolation-filters="sRGB">
<feFlood flood-opacity="0" result="BackgroundImageFix"/>
<feColorMatrix in="SourceAlpha" type="matrix" values="0 0 0 0 0 0 0 0 0 0 0 0 0 0 0 0 0 0 127 0" result="hardAlpha"/>
<feOffset dy="1"/>
<feGaussianBlur stdDeviation="1"/>
<feColorMatrix type="matrix" values="0 0 0 0 0.0627451 0 0 0 0 0.0941176 0 0 0 0 0.156863 0 0 0 0.06 0"/>
<feBlend mode="normal" in2="BackgroundImageFix" result="effect1_dropShadow_8_10051"/>
<feColorMatrix in="SourceAlpha" type="matrix" values="0 0 0 0 0 0 0 0 0 0 0 0 0 0 0 0 0 0 127 0" result="hardAlpha"/>
<feOffset dy="1"/>
<feGaussianBlur stdDeviation="1.5"/>
<feColorMatrix type="matrix" values="0 0 0 0 0.0627451 0 0 0 0 0.0941176 0 0 0 0 0.156863 0 0 0 0.1 0"/>
<feBlend mode="normal" in2="effect1_dropShadow_8_10051" result="effect2_dropShadow_8_10051"/>
<feBlend mode="normal" in="SourceGraphic" in2="effect2_dropShadow_8_10051" result="shape"/>
</filter>
<filter id="filter1_dd_8_10051" x="8" y="8" width="22" height="22" filterUnits="userSpaceOnUse" color-interpolation-filters="sRGB">
<feFlood flood-opacity="0" result="BackgroundImageFix"/>
<feColorMatrix in="SourceAlpha" type="matrix" values="0 0 0 0 0 0 0 0 0 0 0 0 0 0 0 0 0 0 127 0" result="hardAlpha"/>
<feOffset dy="1"/>
<feGaussianBlur stdDeviation="1"/>
<feColorMatrix type="matrix" values="0 0 0 0 0.0627451 0 0 0 0 0.0941176 0 0 0 0 0.156863 0 0 0 0.06 0"/>
<feBlend mode="normal" in2="BackgroundImageFix" result="effect1_dropShadow_8_10051"/>
<feColorMatrix in="SourceAlpha" type="matrix" values="0 0 0 0 0 0 0 0 0 0 0 0 0 0 0 0 0 0 127 0" result="hardAlpha"/>
<feOffset dy="1"/>
<feGaussianBlur stdDeviation="1.5"/>
<feColorMatrix type="matrix" values="0 0 0 0 0.0627451 0 0 0 0 0.0941176 0 0 0 0 0.156863 0 0 0 0.1 0"/>
<feBlend mode="normal" in2="effect1_dropShadow_8_10051" result="effect2_dropShadow_8_10051"/>
<feBlend mode="normal" in="SourceGraphic" in2="effect2_dropShadow_8_10051" result="shape"/>
</filter>
<filter id="filter2_b_8_10051" x="-2" y="13" width="42" height="26" filterUnits="userSpaceOnUse" color-interpolation-filters="sRGB">
<feFlood flood-opacity="0" result="BackgroundImageFix"/>
<feGaussianBlur in="BackgroundImageFix" stdDeviation="2.5"/>
<feComposite in2="SourceAlpha" operator="in" result="effect1_backgroundBlur_8_10051"/>
<feBlend mode="normal" in="SourceGraphic" in2="effect1_backgroundBlur_8_10051" result="shape"/>
</filter>
<linearGradient id="paint0_linear_8_10051" x1="19" y1="2" x2="19" y2="34" gradientUnits="userSpaceOnUse">
<stop stop-color="white"/>
<stop offset="1" stop-color="#D0D5DD"/>
</linearGradient>
<linearGradient id="paint1_linear_8_10051" x1="15" y1="26" x2="23" y2="10" gradientUnits="userSpaceOnUse">
<stop stop-color="#53389E"/>
<stop offset="1" stop-color="#6941C6"/>
</linearGradient>
<clipPath id="clip0_8_10051">
<rect x="3" y="2" width="32" height="32" rx="8" fill="white"/>
</clipPath>
</defs>
</svg>
